<?xml version="1.0" standalone="no"?>
<!DOCTYPE svg PUBLIC "-//W3C//DTD SVG 20010904//EN"
 "http://www.w3.org/TR/2001/REC-SVG-20010904/DTD/svg10.dtd">
<svg version="1.0" xmlns="http://www.w3.org/2000/svg"
 width="2048.000000pt" height="2048.000000pt" viewBox="0 0 2048.000000 2048.000000"
 preserveAspectRatio="xMidYMid meet">

<g transform="translate(0.000000,2048.000000) scale(0.100000,-0.100000)"
fill="#000000" stroke="none">
<path d="M7138 13353 c7 -3 16 -2 19 1 4 3 -2 6 -13 5 -11 0 -14 -3 -6 -6z"/>
<path d="M6938 13315 c-528 -145 -844 -436 -960 -883 -25 -98 -31 -138 -32
-245 -1 -104 2 -129 14 -137 13 -8 13 -10 1 -10 -11 0 -12 -3 -4 -11 21 -21
31 0 38 78 12 137 51 266 124 411 135 269 402 470 753 568 54 15 98 31 98 35
0 6 -44 -1 -80 -14 -33 -11 -81 -16 -75 -8 3 5 1 13 -5 16 -6 4 -10 3 -9 -2 4
-23 -4 -31 -41 -41 -31 -8 -42 -7 -51 4 -13 16 -34 19 -24 5 3 -6 -3 -15 -12
-21 -15 -8 -12 -9 12 -5 25 5 23 2 -16 -19 -26 -14 -56 -23 -68 -21 -12 2 -19
0 -16 -4 2 -5 -2 -14 -10 -21 -12 -10 -24 -10 -55 -1 -41 12 -62 31 -35 31 9
0 13 4 10 10 -4 6 1 7 11 3 14 -5 16 -2 12 15 -4 13 1 27 13 38 14 12 16 21 8
30 -7 9 -6 14 2 20 7 4 9 3 5 -4 -3 -6 -2 -13 3 -16 12 -8 42 4 36 13 -2 4 10
5 27 3 24 -4 29 -2 23 9 -4 8 4 1 17 -15 l24 -29 -2 32 c-2 32 10 49 21 31 9
-15 28 -12 22 4 -3 7 0 19 6 25 8 8 8 11 -1 11 -7 0 -12 5 -12 11 0 6 7 9 14
6 10 -4 13 -1 10 7 -3 8 4 16 18 19 13 3 48 14 78 25 30 12 96 32 145 45 50
14 81 25 70 25 -11 0 -59 -10 -107 -23z"/>
<path d="M6805 13230 c3 -5 8 -10 11 -10 2 0 4 5 4 10 0 6 -5 10 -11 10 -5 0
-7 -4 -4 -10z"/>
<path d="M6988 13123 c6 -2 18 -2 25 0 6 3 1 5 -13 5 -14 0 -19 -2 -12 -5z"/>
<path d="M6605 13110 c-3 -5 -1 -10 4 -10 6 0 11 5 11 10 0 6 -2 10 -4 10 -3
0 -8 -4 -11 -10z"/>
<path d="M6763 13114 c8 -13 -19 -27 -34 -18 -5 3 -9 -2 -9 -11 0 -9 4 -13 10
-10 5 3 20 8 31 10 30 6 32 10 12 26 -9 8 -14 9 -10 3z"/>
<path d="M6540 13079 c0 -5 5 -7 10 -4 6 3 10 8 10 11 0 2 -4 4 -10 4 -5 0
-10 -5 -10 -11z"/>
<path d="M6562 13064 c-7 -8 -8 -14 -3 -14 10 0 25 19 20 25 -2 1 -10 -3 -17
-11z"/>
<path d="M6510 13012 c0 -10 23 -22 41 -22 5 0 9 5 9 11 0 5 -5 7 -10 4 -6 -4
-17 -1 -25 5 -9 7 -15 8 -15 2z"/>
<path d="M13472 12889 c-6 -34 -10 -65 -8 -67 6 -5 28 107 24 120 -2 6 -9 -18
-16 -53z"/>
<path d="M14295 12913 c-104 -22 -214 -71 -260 -116 -44 -43 -32 -40 32 9 23
18 67 41 97 53 56 21 224 56 232 48 9 -9 -152 -138 -204 -163 -69 -35 -60 -43
11 -10 52 25 227 169 227 187 0 13 -54 10 -135 -8z"/>
<path d="M13889 12910 c-1 -5 -2 -14 -3 -20 -1 -11 -21 -35 -90 -109 -28 -30
-42 -49 -31 -43 36 19 145 149 145 174 0 12 -20 10 -21 -2z"/>
<path d="M6875 12861 c-77 -22 -195 -77 -195 -90 0 -6 -3 -10 -7 -10 -17 3
-29 -2 -52 -20 l-25 -19 30 5 29 5 -25 -22 c-20 -17 -15 -16 20 5 65 38 145
75 220 101 36 13 56 23 45 23 -11 0 -38 -6 -60 -14 -33 -11 -37 -11 -22 0 10
7 38 19 63 26 24 7 44 17 44 21 0 4 -1 8 -2 7 -2 0 -30 -8 -63 -18z m-65 -46
c0 -4 -88 -45 -99 -45 -11 0 55 38 75 43 10 2 20 5 22 6 1 0 2 -1 2 -4z m-140
-71 c0 -8 -19 -13 -24 -6 -3 5 1 9 9 9 8 0 15 -2 15 -3z"/>
<path d="M6998 12853 c7 -3 16 -2 19 1 4 3 -2 6 -13 5 -11 0 -14 -3 -6 -6z"/>
<path d="M14068 12759 c-21 -11 -38 -24 -38 -29 0 -8 67 27 89 46 12 11 -19 1
-51 -17z"/>
<path d="M13940 12698 c-30 -28 -46 -46 -35 -40 19 10 104 92 95 92 -3 -1 -30
-24 -60 -52z"/>
<path d="M6532 12674 c-54 -47 -115 -127 -115 -151 0 -7 -11 -13 -24 -13 -27
0 -62 -32 -64 -57 -4 -58 15 -83 61 -83 55 0 91 78 54 115 -15 14 -14 19 12
53 15 20 55 63 88 95 34 32 53 55 44 51 -21 -7 -24 6 -6 24 29 29 -2 8 -50
-34z m38 -3 c0 -5 -9 -13 -20 -16 -11 -3 -20 -11 -20 -16 0 -6 -4 -7 -10 -4
-6 4 -5 11 3 19 6 8 15 12 20 9 4 -2 7 1 7 6 0 6 5 11 10 11 6 0 10 -4 10 -9z"/>
<path d="M14043 12698 c-18 -6 -33 -15 -33 -20 0 -10 26 -4 75 17 37 17 6 18
-42 3z"/>
<path d="M13937 12653 c-10 -10 -8 -23 4 -23 5 0 8 4 5 9 -4 5 0 12 6 14 7 3
8 6 2 6 -6 1 -14 -2 -17 -6z"/>
<path d="M14042 12636 c-58 -9 -71 -13 -61 -23 15 -15 33 -18 25 -5 -10 16
174 32 256 22 71 -8 220 -60 233 -80 7 -12 -47 -28 -140 -42 -119 -17 -216 4
-352 75 -13 6 -23 14 -23 17 0 3 -24 4 -52 3 -30 -1 -66 4 -82 13 -34 17 -39
17 -31 4 3 -5 1 -10 -6 -10 -30 0 4 -12 47 -16 27 -3 81 -17 119 -31 159 -57
194 -65 282 -70 73 -5 112 -1 188 16 52 13 95 27 95 32 0 13 -86 55 -174 84
-83 28 -188 31 -324 11z"/>
<path d="M14033 12593 c9 -2 23 -2 30 0 6 3 -1 5 -18 5 -16 0 -22 -2 -12 -5z"/>
<path d="M14118 12583 c7 -3 16 -2 19 1 4 3 -2 6 -13 5 -11 0 -14 -3 -6 -6z"/>
<path d="M13728 12533 c6 -2 18 -2 25 0 6 3 1 5 -13 5 -14 0 -19 -2 -12 -5z"/>
<path d="M13805 12516 c51 -16 120 -52 165 -85 l35 -25 -25 27 c-30 34 -154
97 -189 96 -21 0 -19 -3 14 -13z"/>
<path d="M13710 12485 c14 -8 30 -14 35 -14 6 0 -1 6 -15 14 -14 8 -29 14 -35
14 -5 0 1 -6 15 -14z"/>
<path d="M13687 12434 c3 -8 8 -12 11 -9 3 3 13 -2 22 -10 30 -27 149 -65 237
-75 159 -18 165 -15 90 40 l-42 32 34 -31 c19 -17 33 -33 30 -35 -6 -6 -176
12 -223 25 -23 6 -69 26 -103 44 -40 22 -60 29 -56 19z"/>
<path d="M14987 12355 c-211 -201 -555 -283 -1154 -273 -133 2 -240 1 -237 -1
4 -4 29 -8 62 -10 7 -1 10 -5 7 -11 -4 -6 2 -7 17 -1 13 4 35 5 51 0 32 -9 31
-9 57 -9 11 0 20 -5 20 -11 0 -6 -9 -9 -20 -6 -11 3 -20 1 -20 -4 0 -8 15 -13
33 -10 4 0 7 -7 7 -17 0 -9 3 -28 7 -41 5 -20 3 -23 -13 -19 -16 4 -19 -1 -20
-31 0 -19 -6 -37 -12 -39 -7 -2 -12 -8 -12 -14 0 -5 9 -7 20 -3 11 3 28 1 37
-5 16 -10 15 -10 -4 -5 -16 4 -25 0 -33 -15 -6 -11 -15 -18 -21 -15 -5 4 -7
10 -5 14 3 4 1 13 -5 21 -6 11 -9 8 -9 -12 0 -16 -4 -28 -10 -28 -5 0 -7 8 -3
18 5 16 5 16 -8 -1 -11 -14 -25 -17 -69 -14 -30 3 -64 0 -75 -4 -36 -16 520
-2 635 16 377 57 615 171 778 372 82 100 142 211 121 224 -27 17 -45 7 -122
-66z m-1150 -320 c0 -8 -6 -15 -13 -15 -8 0 -11 6 -8 15 4 8 9 15 13 15 4 0 8
-7 8 -15z m-22 -155 c-3 -5 -10 -10 -16 -10 -5 0 -9 5 -9 10 0 6 7 10 16 10 8
0 12 -4 9 -10z"/>
<path d="M13511 12377 c2 -1 13 -9 24 -17 19 -14 19 -14 6 3 -7 9 -18 17 -24
17 -6 0 -8 -1 -6 -3z"/>
<path d="M13543 12083 c9 -2 23 -2 30 0 6 3 -1 5 -18 5 -16 0 -22 -2 -12 -5z"/>
<path d="M13788 11983 c-4 -14 0 -24 8 -27 15 -6 16 -1 5 28 -7 19 -8 19 -13
-1z"/>
<path d="M13453 11813 c9 -2 23 -2 30 0 6 3 -1 5 -18 5 -16 0 -22 -2 -12 -5z"/>
<path d="M6741 11551 c-7 -5 -11 -15 -9 -22 3 -10 8 -7 17 9 13 24 12 26 -8
13z"/>
<path d="M6778 11543 c8 -3 6 -10 -8 -21 l-21 -17 23 -14 c21 -13 22 -13 9 3
-20 24 -7 30 26 11 l28 -17 -25 22 c-19 16 -20 20 -7 16 52 -17 66 -14 22 4
-27 11 -52 20 -55 19 -3 0 1 -3 8 -6z"/>
<path d="M6800 11476 c0 -2 7 -7 16 -10 8 -3 12 -2 9 4 -6 10 -25 14 -25 6z"/>
<path d="M6840 11456 c0 -2 7 -7 16 -10 8 -3 12 -2 9 4 -6 10 -25 14 -25 6z"/>
<path d="M6648 10849 c-132 -11 -324 -46 -441 -80 -352 -105 -661 -330 -783
-571 -58 -115 -80 -292 -50 -404 41 -155 161 -269 295 -281 l56 -5 -60 30
c-154 75 -243 255 -216 433 6 38 20 93 31 123 78 207 327 419 627 531 158 60
429 114 576 116 42 0 55 3 42 8 -11 5 -29 7 -39 5 -11 -2 -26 1 -33 8 -11 9
-10 13 4 24 16 13 15 13 -9 3 -30 -13 -35 -24 -15 -32 6 -3 2 -6 -10 -6 -12
-1 -25 4 -29 11 -4 6 -3 8 3 5 6 -4 13 2 16 13 3 11 1 23 -4 26 -5 3 -9 1 -9
-4 0 -5 -6 -9 -14 -9 -11 0 -12 4 -3 18 6 10 15 15 19 13 4 -3 8 0 8 6 0 6 5
8 10 5 6 -4 8 -11 5 -16 -4 -5 -1 -9 5 -9 7 0 10 7 6 15 -4 12 3 15 32 16 20
1 100 5 177 8 l140 8 -120 0 c-66 0 -163 -3 -217 -8z m-88 -39 c0 -5 -7 -10
-15 -10 -8 0 -15 5 -15 10 0 6 7 10 15 10 8 0 15 -4 15 -10z m15 -40 c3 -5 1
-10 -4 -10 -6 0 -11 5 -11 10 0 6 2 10 4 10 3 0 8 -4 11 -10z"/>
<path d="M7098 10843 c7 -3 16 -2 19 1 4 3 -2 6 -13 5 -11 0 -14 -3 -6 -6z"/>
<path d="M7193 10833 c9 -2 23 -2 30 0 6 3 -1 5 -18 5 -16 0 -22 -2 -12 -5z"/>
<path d="M7103 10733 c9 -2 23 -2 30 0 6 3 -1 5 -18 5 -16 0 -22 -2 -12 -5z"/>
<path d="M7338 10703 c7 -3 16 -2 19 1 4 3 -2 6 -13 5 -11 0 -14 -3 -6 -6z"/>
<path d="M7438 10683 c7 -3 16 -2 19 1 4 3 -2 6 -13 5 -11 0 -14 -3 -6 -6z"/>
<path d="M7568 10653 c7 -3 16 -2 19 1 4 3 -2 6 -13 5 -11 0 -14 -3 -6 -6z"/>
<path d="M6973 10603 c9 -2 25 -2 35 0 9 3 1 5 -18 5 -19 0 -27 -2 -17 -5z"/>
<path d="M6708 10583 c6 -2 18 -2 25 0 6 3 1 5 -13 5 -14 0 -19 -2 -12 -5z"/>
<path d="M6780 10586 c0 -2 7 -7 16 -10 8 -3 12 -2 9 4 -6 10 -25 14 -25 6z"/>
<path d="M6650 10573 c0 -5 -20 -9 -45 -10 -124 -6 -505 -179 -505 -230 0 -7
2 -13 4 -13 3 0 40 23 83 50 90 58 240 119 386 158 56 15 103 33 105 40 1 6
-5 12 -13 12 -8 0 -15 -3 -15 -7z"/>
<path d="M7108 10563 c7 -3 16 -2 19 1 4 3 -2 6 -13 5 -11 0 -14 -3 -6 -6z"/>
<path d="M6905 10527 c-84 -32 -198 -101 -252 -153 -66 -62 -46 -66 29 -5 35
28 95 68 135 88 39 21 69 41 67 45 -3 4 2 5 10 2 9 -3 16 -1 16 5 0 7 6 11 13
10 28 -4 44 2 44 16 0 8 -1 15 -1 14 -1 0 -28 -10 -61 -22z"/>
<path d="M7254 10521 c4 -5 0 -12 -6 -14 -7 -3 -3 -6 9 -6 12 -1 25 4 29 11 4
7 3 8 -4 4 -7 -4 -12 -2 -12 3 0 6 -5 11 -11 11 -5 0 -8 -4 -5 -9z"/>
<path d="M7108 10476 c-84 -36 -183 -104 -237 -160 -46 -47 -31 -60 17 -14 20
19 55 48 77 64 22 16 43 33 46 37 3 5 9 9 12 8 19 -1 146 67 140 74 -5 4 -3 5
4 1 7 -4 24 -3 40 0 25 7 25 8 8 15 -28 11 -23 12 -107 -25z"/>
<path d="M7267 10383 c-4 -3 -7 -12 -7 -19 0 -11 5 -11 25 -2 13 6 22 15 19
19 -6 11 -28 12 -37 2z"/>
<path d="M7225 10350 c-3 -5 1 -10 9 -10 9 0 16 5 16 10 0 6 -4 10 -9 10 -6 0
-13 -4 -16 -10z"/>
<path d="M5991 10314 c-27 -35 -27 -65 2 -92 28 -27 58 -28 85 -4 32 26 37 63
12 95 -29 36 -71 36 -99 1z"/>
<path d="M6532 10297 c-23 -27 -24 -62 -2 -90 24 -30 55 -34 88 -11 28 19 30
74 4 97 -22 20 -75 22 -90 4z"/>
<path d="M7115 10270 c-24 -26 -31 -57 -9 -39 8 6 12 14 9 17 -3 3 2 14 12 24
9 10 14 18 11 18 -3 0 -13 -9 -23 -20z"/>
<path d="M13467 10238 c-26 -12 -24 -13 35 -14 142 -1 262 -108 308 -276 18
-68 8 -236 -18 -318 -34 -103 -107 -221 -198 -320 -46 -50 -84 -87 -84 -84 0
3 -17 -8 -37 -24 -21 -16 -64 -46 -95 -67 -55 -36 -77 -62 -41 -48 12 5 15 2
10 -10 -5 -14 -3 -15 13 -4 18 11 18 12 3 18 -17 6 -12 11 20 22 15 6 17 3 11
-15 -6 -20 -5 -21 10 -9 14 12 16 12 10 -4 -6 -14 -4 -16 7 -11 8 4 1 -4 -16
-18 -16 -14 -26 -28 -22 -32 4 -4 7 -2 7 5 0 7 4 10 9 7 11 -7 121 71 121 86
0 6 3 8 7 5 3 -4 17 3 30 15 17 16 20 24 12 35 -6 7 -17 13 -23 13 -6 0 -5 -4
3 -9 8 -5 11 -16 8 -26 -4 -9 -11 -14 -16 -10 -5 3 -17 -5 -25 -17 -9 -12 -16
-17 -16 -11 0 7 -6 10 -13 7 -8 -3 -20 3 -28 13 -12 16 -12 17 1 6 13 -10 18
-8 28 7 10 16 9 18 -3 14 -27 -11 -16 10 20 39 33 26 36 27 70 13 19 -8 35
-18 35 -21 0 -3 -4 -4 -9 0 -5 3 -12 1 -15 -4 -4 -5 -2 -12 3 -15 13 -8 102
94 94 107 -3 6 -1 7 5 3 14 -8 91 99 136 190 72 147 103 329 77 456 -27 127
-115 244 -219 290 -57 26 -174 34 -215 16z m108 -988 c-3 -5 3 -11 12 -13 11
-3 6 -5 -11 -6 -23 -1 -26 2 -17 12 6 8 7 18 3 22 -4 5 -1 5 6 1 7 -4 10 -11
7 -16z m-135 -130 c8 -5 12 -11 10 -14 -3 -2 -14 2 -24 10 -22 15 -10 19 14 4z"/>
<path d="M7038 10183 c7 -3 16 -2 19 1 4 3 -2 6 -13 5 -11 0 -14 -3 -6 -6z"/>
<path d="M7001 10161 c-17 -31 -13 -56 12 -77 22 -19 22 -19 5 2 -22 26 -23
53 -1 69 11 8 12 14 5 19 -6 3 -16 -2 -21 -13z"/>
<path d="M7077 10173 c-4 -3 1 -15 10 -25 16 -18 16 -21 -2 -51 l-18 -32 21
19 c25 21 29 68 9 85 -8 6 -17 8 -20 4z"/>
<path d="M7414 10155 c-9 -22 1 -29 15 -11 8 10 9 16 1 21 -5 3 -13 -1 -16
-10z"/>
<path d="M7987 10099 c-14 -35 -87 -218 -161 -405 -155 -393 -222 -539 -301
-660 -95 -147 -188 -230 -309 -280 -28 -11 -52 -27 -54 -35 -2 -14 58 -16 518
-16 350 0 523 3 527 10 3 6 -4 18 -17 26 -112 75 -143 174 -100 313 28 91 98
238 126 267 13 13 24 29 24 35 0 7 -3 7 -8 1 -4 -5 -15 -16 -25 -24 -16 -12
-17 -11 -13 10 3 13 5 27 5 30 1 4 8 6 17 5 11 -1 25 22 45 74 33 84 32 80 22
80 -5 0 -17 -19 -28 -43 -11 -23 -27 -48 -35 -55 -8 -8 -10 -11 -3 -8 7 4 9
-1 5 -16 -3 -12 -7 -17 -10 -10 -2 6 -8 12 -13 12 -6 0 -7 -6 -3 -12 5 -10 4
-10 -5 -2 -7 6 -13 19 -15 28 -1 9 -5 16 -9 16 -4 0 -12 0 -18 0 -6 0 -3 -7 5
-16 9 -8 14 -20 11 -25 -4 -5 0 -9 7 -9 9 0 9 -3 -2 -10 -10 -6 -11 -10 -2
-10 6 0 12 -5 12 -11 0 -5 -5 -7 -11 -3 -6 3 -4 -5 5 -19 15 -22 15 -25 1 -31
-9 -3 -13 -10 -10 -16 3 -5 1 -10 -4 -10 -11 0 -15 13 -12 37 1 8 -5 10 -15 6
-14 -5 -15 -3 -5 15 10 18 9 22 -3 22 -8 0 -20 8 -25 18 -9 14 -12 15 -20 3
-5 -7 -14 -10 -21 -6 -9 6 -9 9 1 15 10 7 9 13 -3 32 -11 16 -13 30 -7 39 16
26 9 29 -13 7 -20 -20 -23 -21 -26 -5 -2 9 -12 17 -23 17 -16 0 -18 5 -13 25
5 20 3 24 -10 19 -9 -3 -13 -11 -9 -17 3 -5 2 -7 -4 -4 -5 3 -9 24 -9 47 1 22
-2 40 -5 40 -5 0 -4 30 1 50 0 3 8 -8 16 -23 9 -16 18 -26 21 -23 3 3 -7 24
-22 46 -22 32 -31 38 -42 29 -11 -10 -12 -8 -4 13 15 41 1 84 -25 74 -11 -4
-11 0 -1 21 l11 25 14 -21 c8 -11 19 -21 25 -21 5 0 3 8 -6 18 -19 21 -22 37
-6 26 7 -4 10 -1 7 7 -3 8 -10 13 -16 12 -6 -2 -9 4 -5 13 5 13 7 13 23 -1 20
-18 36 -20 23 -2 -14 17 -22 56 -13 59 5 2 10 19 13 38 2 22 9 34 17 32 8 -2
11 4 7 18 -6 24 18 127 34 147 6 7 9 18 7 24 -2 7 -16 -16 -31 -52z m-83 -366
c-5 -5 -12 -12 -16 -18 -4 -6 -8 -2 -8 8 0 9 7 17 17 17 9 0 12 -3 7 -7z m213
-396 c-6 -19 -23 -18 -23 2 0 11 5 17 14 14 7 -3 11 -10 9 -16z m7 -43 c3 -8
2 -12 -4 -9 -6 3 -10 10 -10 16 0 14 7 11 14 -7z"/>
<path d="M7360 10117 c-36 -18 -48 -59 -26 -91 20 -32 67 -35 96 -6 32 32 23
47 -9 16 -37 -36 -72 -32 -86 8 -7 22 -7 30 3 34 6 2 10 8 6 13 -3 5 6 13 20
19 14 5 26 12 26 15 0 7 -1 7 -30 -8z"/>
<path d="M7431 10096 c7 -15 15 -23 17 -16 3 7 -3 19 -13 28 -15 16 -16 15 -4
-12z"/>
<path d="M8576 9965 c-3 -8 -1 -15 4 -15 6 0 10 7 10 15 0 8 -2 15 -4 15 -2 0
-6 -7 -10 -15z"/>
<path d="M8557 9921 c-4 -17 -3 -21 5 -13 5 5 8 16 6 23 -3 8 -7 3 -11 -10z"/>
<path d="M8675 9860 c3 -5 2 -10 -2 -10 -11 0 -48 -108 -40 -116 3 -4 11 6 18
22 6 16 19 48 30 72 16 36 17 42 3 42 -8 0 -12 -4 -9 -10z"/>
<path d="M8380 9807 c-14 -23 -25 -46 -26 -52 -3 -22 -55 -178 -64 -196 -6
-10 -7 -19 -2 -19 9 0 126 300 119 306 -2 2 -14 -15 -27 -39z"/>
<path d="M7960 9670 c0 -5 5 -10 11 -10 5 0 7 5 4 10 -3 6 -8 10 -11 10 -2 0
-4 -4 -4 -10z"/>
<path d="M8600 9610 c0 -5 5 -10 11 -10 5 0 7 5 4 10 -3 6 -8 10 -11 10 -2 0
-4 -4 -4 -10z"/>
<path d="M13372 9568 c-17 -17 -15 -59 4 -86 12 -18 24 -22 52 -20 30 2 38 8
46 31 15 43 -10 81 -54 85 -19 2 -41 -3 -48 -10z"/>
<path d="M8001 9534 c0 -11 3 -14 6 -6 3 7 2 16 -1 19 -3 4 -6 -2 -5 -13z"/>
<path d="M13052 9538 c-19 -19 -14 -65 8 -81 11 -8 17 -17 12 -22 -10 -11 50
4 65 17 19 15 16 62 -5 81 -22 20 -63 22 -80 5z m63 -11 c24 -15 29 -31 15
-57 -14 -26 -23 -25 -56 3 -24 21 -25 25 -13 45 16 25 25 27 54 9z"/>
<path d="M13085 9510 c-4 -6 -11 -8 -16 -5 -5 4 -9 1 -9 -4 0 -15 11 -13 34 4
11 8 15 15 9 15 -7 0 -15 -5 -18 -10z"/>
<path d="M13360 9438 c-14 -23 -16 -28 -19 -49 0 -5 -5 -8 -10 -5 -5 3 -14 -1
-21 -9 -7 -8 -9 -15 -5 -15 4 0 2 -8 -5 -17 -7 -10 11 6 39 35 28 29 51 60 51
68 0 21 -13 17 -30 -8z"/>
<path d="M12819 9423 c-13 -16 -12 -17 4 -4 9 7 17 15 17 17 0 8 -8 3 -21 -13z"/>
<path d="M8105 9410 c-3 -5 1 -10 9 -10 9 0 16 5 16 10 0 6 -4 10 -9 10 -6 0
-13 -4 -16 -10z"/>
<path d="M8256 9355 c-3 -8 -1 -15 4 -15 6 0 10 4 10 10 0 5 37 11 83 13 l82
3 -86 2 c-69 2 -88 -1 -93 -13z"/>
<path d="M13209 9283 c-1 -5 -1 -11 0 -15 1 -9 -55 -39 -61 -33 -3 3 -5 -2 -5
-9 0 -16 14 -11 51 17 17 12 32 47 20 47 -2 0 -5 -3 -5 -7z"/>
<path d="M13520 9170 c0 -5 5 -10 11 -10 5 0 7 5 4 10 -3 6 -8 10 -11 10 -2 0
-4 -4 -4 -10z"/>
<path d="M13245 9058 c-22 -12 -80 -36 -130 -54 -100 -37 -103 -46 -4 -13 64
21 179 75 179 84 0 7 0 7 -45 -17z"/>
<path d="M12960 8954 l-45 -14 40 6 c22 3 47 10 55 15 21 12 3 10 -50 -7z"/>
<path d="M13248 8963 c-10 -2 -18 -9 -18 -14 0 -6 10 -5 23 2 37 20 36 23 -5
12z"/>
<path d="M13168 8924 c-16 -8 -28 -17 -28 -19 0 -5 70 22 79 30 10 11 -26 3
-51 -11z"/>
<path d="M12838 8923 c7 -3 16 -2 19 1 4 3 -2 6 -13 5 -11 0 -14 -3 -6 -6z"/>
<path d="M13069 8885 c-3 -2 -14 -6 -25 -8 -10 -1 -28 -8 -39 -15 -19 -12 -18
-12 5 -6 50 14 95 33 79 33 -9 1 -18 -1 -20 -4z"/>
<path d="M11682 8601 c-58 -123 -117 -295 -108 -316 3 -8 0 -15 -7 -15 -9 0
-8 -3 1 -9 17 -10 17 -21 2 -31 -6 -4 -12 -23 -13 -43 -1 -20 -5 -37 -8 -37
-4 0 -12 -30 -19 -67 -6 -38 -14 -77 -16 -88 -2 -11 -1 -14 2 -7 3 6 9 10 13
8 4 -3 8 0 8 7 2 98 109 423 182 551 17 29 27 57 23 61 -4 5 -2 5 5 1 14 -8
32 21 28 47 -2 9 1 15 6 11 5 -3 6 -10 3 -16 -4 -5 6 -2 21 8 15 10 24 19 19
21 -5 1 -28 6 -51 11 l-41 9 -50 -106z"/>
<path d="M11560 8660 c0 -11 2 -20 4 -20 2 0 6 9 9 20 3 11 1 20 -4 20 -5 0
-9 -9 -9 -20z"/>
<path d="M11788 8516 c-75 -158 -121 -290 -112 -319 4 -14 3 -17 -6 -12 -10 6
-12 0 -7 -24 4 -20 3 -30 -3 -26 -6 3 -10 2 -10 -4 0 -5 4 -12 10 -16 5 -3 14
14 20 37 6 24 14 51 17 62 4 13 1 17 -8 12 -8 -5 -8 -2 1 6 9 7 24 36 34 63
28 74 93 201 142 277 24 37 39 70 34 73 -5 3 -12 0 -16 -6 -5 -9 -10 -8 -18 3
-9 11 -25 -15 -78 -126z"/>
<path d="M11521 8559 c-6 -18 -9 -34 -7 -36 2 -2 9 10 15 28 6 18 9 34 7 36
-2 2 -9 -10 -15 -28z"/>
<path d="M10962 8378 c-50 -167 -63 -251 -69 -418 -4 -143 -2 -179 17 -270 41
-199 123 -352 262 -486 185 -180 403 -271 669 -281 201 -8 337 24 472 110 53
34 69 58 48 71 -5 3 -41 -8 -81 -25 -192 -81 -397 -78 -577 11 -151 74 -267
235 -325 450 -20 74 -23 109 -23 270 0 194 16 302 65 444 10 31 17 56 15 56
-15 0 -67 -143 -71 -195 0 -11 -3 -27 -6 -35 -9 -23 -29 -126 -27 -136 1 -5 1
-48 0 -95 -1 -76 -3 -87 -18 -85 -12 0 -19 -7 -21 -21 -2 -13 -8 -23 -13 -23
-6 0 -8 -4 -4 -9 3 -5 1 -12 -5 -16 -5 -3 -10 3 -10 15 0 14 -4 19 -12 14 -9
-5 -9 -3 1 9 15 19 9 23 -39 29 -14 2 -24 9 -22 16 1 6 -2 12 -8 12 -5 0 -10
-4 -10 -9 0 -6 -9 -9 -20 -8 -17 1 -19 11 -2 13 4 0 15 4 25 9 29 12 1 25 -57
25 -59 0 -58 8 2 11 23 2 42 7 42 11 0 4 -4 8 -10 8 -5 0 -10 6 -10 14 0 10
-19 17 -62 23 -35 4 -62 13 -62 18 1 6 -15 18 -35 27 -31 15 -35 23 -9 19 4 0
5 6 2 13 -3 8 -12 12 -20 9 -9 -3 -14 1 -14 12 0 10 -5 13 -12 9 -6 -4 -8 -3
-4 4 3 6 2 13 -4 17 -14 9 -8 55 8 55 9 0 11 -7 7 -20 -4 -11 -2 -20 4 -20 6
0 11 13 11 29 0 24 -3 28 -20 24 -18 -5 -19 -3 -11 19 5 14 8 38 6 54 -1 16 1
32 7 35 5 3 11 21 13 40 4 46 23 137 36 177 6 18 9 35 7 38 -3 2 -15 -28 -26
-68z m23 -478 c-3 -5 -12 -10 -18 -10 -7 0 -6 4 3 10 19 12 23 12 15 0z m144
-47 c0 -11 -3 -13 -6 -5 -6 15 -33 16 -33 1 0 -5 -4 -7 -10 -4 -20 12 -9 25
20 25 22 0 30 -5 29 -17z m41 -113 c0 -5 -2 -10 -4 -10 -3 0 -8 5 -11 10 -3 6
-1 10 4 10 6 0 11 -4 11 -10z m42 3 c-6 -2 -10 -9 -7 -14 4 -5 -1 -6 -9 -3
-20 8 -11 24 12 23 11 0 12 -2 4 -6z"/>
<path d="M11436 8333 c-6 -14 -5 -15 5 -6 7 7 10 15 7 18 -3 3 -9 -2 -12 -12z"/>
<path d="M10988 8021 c-15 -20 -20 -22 -33 -11 -13 11 -14 10 -9 -4 5 -13 13
-16 33 -11 32 8 34 9 29 32 -3 16 -5 15 -20 -6z"/>
<path d="M10995 7950 c3 -5 8 -10 11 -10 2 0 4 5 4 10 0 6 -5 10 -11 10 -5 0
-7 -4 -4 -10z"/>
<path d="M11020 7950 c0 -6 11 -8 28 -4 39 10 40 14 4 14 -18 0 -32 -5 -32
-10z"/>
<path d="M11225 7951 c-3 -5 -1 -12 5 -16 5 -3 10 1 10 9 0 18 -6 21 -15 7z"/>
<path d="M11513 7905 c0 -27 2 -38 4 -22 2 15 2 37 0 50 -2 12 -4 0 -4 -28z"/>
<path d="M11040 7925 c0 -10 10 -15 33 -14 17 1 24 3 15 6 -10 2 -18 9 -18 14
0 5 -7 9 -15 9 -8 0 -15 -7 -15 -15z"/>
<path d="M11220 7880 c0 -5 5 -10 11 -10 5 0 7 5 4 10 -3 6 -8 10 -11 10 -2 0
-4 -4 -4 -10z"/>
<path d="M11251 7793 c-1 -7 -13 -13 -28 -14 -28 -1 -28 -1 3 -8 17 -4 37 -12
45 -16 11 -7 12 -6 3 6 -6 8 -14 21 -17 29 -3 9 -6 10 -6 3z"/>
<path d="M11630 7776 c0 -9 5 -16 10 -16 6 0 10 4 10 9 0 6 -4 13 -10 16 -5 3
-10 -1 -10 -9z"/>
<path d="M11561 7614 c0 -11 3 -14 6 -6 3 7 2 16 -1 19 -3 4 -6 -2 -5 -13z"/>
<path d="M11570 7550 c0 -21 53 -120 64 -120 8 0 1 24 -18 64 -28 59 -46 81
-46 56z"/>
</g>
</svg>
